#!OML:ASF F:\VICON\USERDATA\INSTALL\rory3\rory3.ASF
:FULLY-SPECIFIED
:DEGREES
1
root 1.58066 18.6552 1.74474 2.13643 -35.242 0.958374
lowerback 1.81677 -0.0543468 -0.388484
upperback 0.368119 -0.0763825 0.636135
thorax -0.639953 -0.0376253 0.870596
lowerneck -11.7537 -1.51936 -7.24374
upperneck 9.46567 -1.07024 1.99646
head 4.817 -0.662726 1.71101
rclavicle -3.66509e-014 9.93923e-015
rhumerus -34.1711 3.45448 -83.7163
rradius 19.3217
rwrist 11.6089
rhand -17.9019 -3.11732
rfingers 7.12502
rthumb 8.36497 -32.9317
lclavicle -3.66509e-014 9.93923e-015
lhumerus -31.8002 -7.49984 85.5862
lradius 29.9236
lwrist -7.29223
lhand -21.5063 23.6513
lfingers 7.12502
lthumb 4.8855 53.575
rfemur -11.514 20.5024 16.4626
rtibia 29.0396
rfoot -19.7909 -12.9294
rtoes -1.853
lfemur 0.352241 -1.5005 -18.3918
ltibia 23.4631
lfoot -24.242 22.7959
ltoes -8.76355
2
root 1.5583 18.6508 1.74743 1.74965 -35.0776 1.22807
lowerback 1.81059 -0.0415931 -0.559055
upperback 0.392637 -0.0633333 0.519178
thorax -0.611575 -0.0309992 0.846158
lowerneck -11.4792 -1.52849 -7.33936
upperneck 9.25171 -1.11561 2.22551
head 4.7089 -0.670885 1.79502
rclavicle 1.06573e-013 3.18055e-015
rhumerus -34.191 3.3596 -83.799
rradius 19.1132
rwrist 11.6379
rhand -17.8884 -2.54155
rfingers 7.12502
rthumb 8.37804 -32.3554
lclavicle 1.06573e-013 3.18055e-015
lhumerus -31.7159 -7.86042 85.7649
lradius 30.2074
lwrist -7.11338
lhand -21.4862 23.7923
lfingers 7.12502
lthumb 4.90487 53.7155
rfemur -11.3033 20.218 16.4104
rtibia 29.2881
rfoot -19.9116 -12.9018
rtoes -2.25894
lfemur 0.557827 -1.42789 -18.4998
ltibia 23.6029
lfoot -24.1192 22.4493
ltoes -8.63182
3
root 1.53324 18.6459 1.75282 1.38424 -35.0482 1.4196
lowerback 1.78606 0.0401109 -0.714147
upperback 0.424416 0.0423481 0.446029
thorax -0.567355 0.0217338 0.855804
lowerneck -11.3406 -1.55687 -7.34958
upperneck 9.13504 -1.1687 2.27338
head 4.65272 -0.692818 1.80786
rclavicle 2.38045e-014 6.16232e-015
rhumerus -34.3374 3.8031 -84.0941
rradius 19.1673
rwrist 10.7029
rhand -17.8752 -2.16527
rfingers 7.12502
rthumb 8.39082 -31.9786
lclavicle 2.38045e-014 6.16232e-015
lhumerus -31.638 -8.16142 85.9587
lradius 30.4822
lwrist -7.2627
lhand -21.0436 24.1608
lfingers 7.12502
lthumb 5.33225 54.0738
rfemur -11.0387 20.005 16.4295
rtibia 29.4834
rfoot -20.0306 -12.7484
rtoes -2.2458
lfemur 0.792828 -1.34806 -18.5548
ltibia 23.7716
lfoot -23.9422 22.2521
ltoes -9.00007
4
root 1.50912 18.6431 1.75781 1.0808 -34.9461 1.4398
lowerback 1.81084 0.0865894 -0.723069
upperback 0.432311 0.103853 0.424675
thorax -0.574373 0.0524833 0.837538
lowerneck -11.1119 -1.56265 -7.3819
upperneck 9.01273 -1.19042 2.27818
head 4.57851 -0.703318 1.8135
rclavicle -4.85283e-014 1.19271e-015
rhumerus -34.4574 4.54581 -84.5198
rradius 19.087
rwrist 9.46741
rhand -18.3596 -1.70592
rfingers 7.12502
rthumb 7.9233 -31.5374
lclavicle -4.85283e-014 1.19271e-015
lhumerus -31.5784 -8.25471 86.0647
lradius 30.7427
lwrist -7.93331
lhand -19.6941 24.8729
lfingers 7.12502
lthumb 6.63512 54.749
rfemur -10.7107 19.8943 16.6361
rtibia 29.6695
rfoot -20.1438 -12.7842
rtoes -2.15057
lfemur 1.02473 -1.28131 -18.4316
ltibia 23.9726
lfoot -23.7509 21.956
ltoes -9.34108
5
root 1.49039 18.6422 1.76044 0.744296 -34.6521 1.41238
lowerback 1.94818 0.0444631 -0.609274
upperback 0.447654 0.0488456 0.392199
thorax -0.634381 0.0249866 0.741692
lowerneck -10.8641 -1.55176 -7.42623
upperneck 8.85148 -1.19111 2.29665
head 4.4883 -0.702444 1.82689
rclavicle 4.56584e-014 -2.78299e-015
rhumerus -34.5088 5.33616 -84.9478
rradius 19.0255
rwrist 8.64331
rhand -18.193 -1.66215
rfingers 7.12502
rthumb 8.08403 -31.4875
lclavicle 4.56584e-014 -2.78299e-015
lhumerus -31.605 -8.99363 86.4957
lradius 30.9661
lwrist -6.42253
lhand -20.643 24.4825
lfingers 7.12502
lthumb 5.719 54.3853
rfemur -10.2966 19.7289 16.917
rtibia 29.8369
rfoot -20.2731 -12.9892
rtoes -2.1628
lfemur 1.26714 -1.19934 -18.2354
ltibia 24.196
lfoot -23.3804 21.5851
ltoes -10.0761
6
root 1.46628 18.6418 1.76389 0.321093 -34.396 1.52065
lowerback 1.97446 -0.00840389 -0.649277
upperback 0.502034 -0.0231512 0.31864
thorax -0.592204 -0.0113456 0.690582
lowerneck -10.5779 -1.536 -7.47861
upperneck 8.66164 -1.19713 2.40639
head 4.38374 -0.698653 1.86968
rclavicle 4.86401e-014 1.39149e-015
rhumerus -34.4584 6.09712 -85.3538
rradius 18.9384
rwrist 8.19989
rhand -17.4581 -1.64871
rfingers 7.12502
rthumb 8.79326 -31.4455
lclavicle 4.86401e-014 1.39149e-015
lhumerus -31.5087 -9.45922 86.7045
lradius 31.1286
lwrist -5.86159
lhand -20.927 24.2866
lfingers 7.12502
lthumb 5.44486 54.1967
rfemur -9.84725 19.5726 17.0729
rtibia 29.9952
rfoot -20.4526 -13.1059
rtoes -2.0685
lfemur 1.54959 -0.966119 -18.1363
ltibia 24.448
lfoot -22.9615 21.1397
ltoes -10.8546
